<svg xmlns="http://www.w3.org/2000/svg" width="578" height="164" viewBox="0 0 578 164" role="img" aria-label="Time on record: 90.6 hours over 56 commits">
  <style>
    .card { fill: #0d1117; stroke: #30363d }
    text { font-family: -apple-system, BlinkMacSystemFont, "Segoe UI", Helvetica, Arial, sans-serif }
    .label { font-size: 11px; letter-spacing: 1.7px; fill: #8b949e }
    .figure { font-size: 38px; font-weight: 600; fill: #e6edf3 }
    .unit { font-size: 13px; fill: #8b949e }
    .note { font-size: 12px; fill: #8b949e }
    .axis { font-size: 10px; fill: #6e7681 }
    .bar { fill: #388bfd }
    .bar-quiet { fill: #21262d }
  </style>
  <rect class="card" x="0.5" y="0.5" width="577" height="163" rx="8"/>
  <text class="label" x="24" y="36">TIME ON RECORD</text>
  <text class="figure" x="24" y="78">90.6<tspan class="unit" dx="7">hrs</tspan></text>
  <text class="note" x="554" y="78" text-anchor="end">51.5 hrs in the last 14 days   ·   35 sittings   ·   56 commits</text>
  <rect class="bar" x="24.0" y="120.1" width="7" height="9.9" rx="1.5"/>
  <rect class="bar-quiet" x="35.0" y="127.0" width="7" height="3.0" rx="1.5"/>
  <rect class="bar-quiet" x="46.1" y="127.0" width="7" height="3.0" rx="1.5"/>
  <rect class="bar-quiet" x="57.1" y="127.0" width="7" height="3.0" rx="1.5"/>
  <rect class="bar-quiet" x="68.2" y="127.0" width="7" height="3.0" rx="1.5"/>
  <rect class="bar-quiet" x="79.2" y="127.0" width="7" height="3.0" rx="1.5"/>
  <rect class="bar-quiet" x="90.2" y="127.0" width="7" height="3.0" rx="1.5"/>
  <rect class="bar-quiet" x="101.3" y="127.0" width="7" height="3.0" rx="1.5"/>
  <rect class="bar" x="112.3" y="120.1" width="7" height="9.9" rx="1.5"/>
  <rect class="bar" x="123.4" y="120.1" width="7" height="9.9" rx="1.5"/>
  <rect class="bar" x="134.4" y="110.2" width="7" height="19.8" rx="1.5"/>
  <rect class="bar" x="145.5" y="91.1" width="7" height="38.9" rx="1.5"/>
  <rect class="bar-quiet" x="156.5" y="127.0" width="7" height="3.0" rx="1.5"/>
  <rect class="bar-quiet" x="167.5" y="127.0" width="7" height="3.0" rx="1.5"/>
  <rect class="bar-quiet" x="178.6" y="127.0" width="7" height="3.0" rx="1.5"/>
  <rect class="bar-quiet" x="189.6" y="127.0" width="7" height="3.0" rx="1.5"/>
  <rect class="bar-quiet" x="200.7" y="127.0" width="7" height="3.0" rx="1.5"/>
  <rect class="bar-quiet" x="211.7" y="127.0" width="7" height="3.0" rx="1.5"/>
  <rect class="bar-quiet" x="222.8" y="127.0" width="7" height="3.0" rx="1.5"/>
  <rect class="bar-quiet" x="233.8" y="127.0" width="7" height="3.0" rx="1.5"/>
  <rect class="bar-quiet" x="244.8" y="127.0" width="7" height="3.0" rx="1.5"/>
  <rect class="bar-quiet" x="255.9" y="127.0" width="7" height="3.0" rx="1.5"/>
  <rect class="bar-quiet" x="266.9" y="127.0" width="7" height="3.0" rx="1.5"/>
  <rect class="bar" x="278.0" y="104.2" width="7" height="25.8" rx="1.5"/>
  <rect class="bar" x="289.0" y="120.1" width="7" height="9.9" rx="1.5"/>
  <rect class="bar" x="300.0" y="120.1" width="7" height="9.9" rx="1.5"/>
  <rect class="bar" x="311.1" y="109.9" width="7" height="20.1" rx="1.5"/>
  <rect class="bar" x="322.1" y="120.1" width="7" height="9.9" rx="1.5"/>
  <rect class="bar-quiet" x="333.2" y="127.0" width="7" height="3.0" rx="1.5"/>
  <rect class="bar-quiet" x="344.2" y="127.0" width="7" height="3.0" rx="1.5"/>
  <rect class="bar-quiet" x="355.2" y="127.0" width="7" height="3.0" rx="1.5"/>
  <rect class="bar-quiet" x="366.3" y="127.0" width="7" height="3.0" rx="1.5"/>
  <rect class="bar-quiet" x="377.3" y="127.0" width="7" height="3.0" rx="1.5"/>
  <rect class="bar" x="388.4" y="100.0" width="7" height="30.0" rx="1.5"/>
  <rect class="bar" x="399.4" y="84.0" width="7" height="46.0" rx="1.5"/>
  <rect class="bar" x="410.5" y="120.1" width="7" height="9.9" rx="1.5"/>
  <rect class="bar" x="421.5" y="119.9" width="7" height="10.1" rx="1.5"/>
  <rect class="bar" x="432.5" y="110.2" width="7" height="19.8" rx="1.5"/>
  <rect class="bar" x="443.6" y="120.1" width="7" height="9.9" rx="1.5"/>
  <rect class="bar-quiet" x="454.6" y="127.0" width="7" height="3.0" rx="1.5"/>
  <rect class="bar-quiet" x="465.7" y="127.0" width="7" height="3.0" rx="1.5"/>
  <rect class="bar" x="476.7" y="113.5" width="7" height="16.5" rx="1.5"/>
  <rect class="bar" x="487.8" y="90.8" width="7" height="39.2" rx="1.5"/>
  <rect class="bar" x="498.8" y="91.6" width="7" height="38.4" rx="1.5"/>
  <rect class="bar" x="509.8" y="124.7" width="7" height="5.3" rx="1.5"/>
  <rect class="bar" x="520.9" y="110.2" width="7" height="19.8" rx="1.5"/>
  <rect class="bar" x="531.9" y="120.1" width="7" height="9.9" rx="1.5"/>
  <rect class="bar" x="543.0" y="99.9" width="7" height="30.1" rx="1.5"/>
  <text class="axis" x="24" y="148">5 Jul 2026</text>
  <text class="axis" x="289" y="148" text-anchor="middle">48 days</text>
  <text class="axis" x="554" y="148" text-anchor="end">22 Aug 2026</text>
</svg>
